Fly_normalized_Motion_pl10
version=1
nRows=25
nColumns=43
inDegrees=yes
endheader
time		pelvis_tilt		pelvis_list		pelvis_rotation		pelvis_tx		pelvis_ty		pelvis_tz		hip_flexion_r		hip_adduction_r		hip_rotation_r		knee_angle_r		ankle_angle_r		subtalar_angle_r		mtp_angle_r		hip_flexion_l		hip_adduction_l		hip_rotation_l		knee_angle_l		ankle_angle_l		subtalar_angle_l		mtp_angle_l		lumbar_extension		lumbar_bending		lumbar_rotation		neck_flexion		neck_lateral_bending		neck_rotation		arm_flex_r		arm_add_r		arm_rot_r		elbow_flex_r		pro_sup_r		wrist_flex_r		wrist_dev_r		hand_finger_flex_r		arm_flex_l		arm_add_l		arm_rot_l		elbow_flex_l		pro_sup_l		wrist_flex_l		wrist_dev_l		hand_finger_flex_l		
0.362500		8.021468		-13.020442		91.814119		-0.033150		1.670124		1.367248		71.384285		-2.675838		-4.088339		-118.794807		-6.491921		-7.459256		23.117223		44.662960		-11.532723		7.675944		-129.690896		11.297115		2.514686		23.699287		-32.207654		3.173352		3.308403		7.351450		11.352695		0.077380		93.257954		-30.609190		35.540332		68.128703		100.955131		3.068233		-0.558485		-25.208475		100.783164		-14.435890		31.728885		56.951825		112.004707		-12.303382		-9.899802		-15.460705		
0.366566		8.044899		-12.761507		91.791750		-0.033153		1.670259		1.359470		71.216703		-2.788195		-4.607113		-117.932763		-6.765502		-8.128709		22.664600		43.965059		-11.554145		7.623019		-129.184215		9.487481		1.881752		23.540789		-32.014129		3.285369		3.252995		6.632851		11.275033		0.152569		93.096779		-31.032368		36.283302		68.117490		101.349572		3.676390		-0.282719		-25.550557		99.871818		-14.849090		31.677406		57.059067		112.302386		-12.086232		-9.509721		-15.868806		
0.370631		8.077253		-12.508027		91.789582		-0.033124		1.670294		1.351665		71.049014		-2.881472		-5.099438		-117.063318		-7.009979		-8.605193		22.330072		43.314833		-11.565944		7.590457		-128.667148		7.573023		1.161271		23.307592		-31.814138		3.401737		3.204536		5.941582		11.212700		0.192850		92.884358		-31.483008		36.950727		68.108875		101.784311		4.355668		-0.087892		-25.832975		98.933783		-15.248589		31.615412		57.158907		112.576917		-11.817122		-9.033756		-16.282425		
0.374697		8.126537		-12.268164		91.798409		-0.033043		1.670222		1.343875		70.881644		-2.961370		-5.589482		-116.183087		-7.170195		-8.895769		22.098957		42.730272		-11.595016		7.568164		-128.120863		5.535794		0.316277		22.993790		-31.605010		3.527607		3.167429		5.267610		11.162478		0.225253		92.606040		-31.925468		37.496601		68.092332		102.269975		5.074332		0.034692		-26.051323		97.954269		-15.661454		31.539524		57.288641		112.816690		-11.487895		-8.470318		-16.676287		
0.378763		8.189533		-12.064089		91.812936		-0.032903		1.670036		1.336121		70.728011		-3.027554		-6.076154		-115.277541		-7.200431		-8.982131		21.937604		42.223491		-11.638338		7.554748		-127.529510		3.369719		-0.602872		22.614201		-31.367211		3.657106		3.125957		4.606004		11.123432		0.268326		92.219783		-32.333641		37.877066		68.078470		102.800602		5.785278		0.133137		-26.198584		96.924318		-16.114963		31.449021		57.481385		113.003197		-11.083974		-7.858918		-16.991045		
0.382828		8.251984		-11.894938		91.824644		-0.032705		1.669682		1.328404		70.597676		-3.077842		-6.538513		-114.360193		-7.130287		-8.887066		21.804585		41.787734		-11.675144		7.560645		-126.904222		1.033407		-1.536568		22.197029		-31.096126		3.780188		3.080591		3.972879		11.083946		0.321637		91.719355		-32.706503		38.095981		68.073109		103.364691		6.467420		0.272856		-26.292566		95.846617		-16.606305		31.327764		57.724707		113.139149		-10.605697		-7.230306		-17.216302		
0.386894		8.315926		-11.767928		91.837837		-0.032495		1.669192		1.320743		70.497557		-3.131025		-6.974594		-113.415633		-6.999140		-8.568557		21.693617		41.440168		-11.698803		7.580653		-126.226925		-1.605421		-2.533589		21.767223		-30.796944		3.903366		3.040484		3.378867		11.038755		0.372584		91.094664		-33.080729		38.137294		68.126232		103.945958		7.102474		0.514680		-26.306966		94.708471		-17.129743		31.165271		58.051156		113.211278		-10.057538		-6.595064		-17.321230		
0.390960		8.362166		-11.665358		91.862630		-0.032311		1.668571		1.313107		70.421916		-3.187145		-7.343643		-112.451267		-6.887714		-8.049086		21.609215		41.168784		-11.684768		7.624482		-125.508158		-4.554523		-3.517840		21.362498		-30.489485		4.018158		3.004887		2.843108		10.985432		0.393618		90.366847		-33.507440		38.055719		68.269341		104.506781		7.676016		0.840767		-26.251818		93.522554		-17.675526		30.970368		58.449186		113.241363		-9.478328		-5.979986		-17.354218		
0.395025		8.395484		-11.568800		91.897819		-0.032142		1.667846		1.305458		70.355572		-3.237767		-7.654014		-111.476610		-6.840575		-7.380475		21.563426		40.953284		-11.636829		7.710675		-124.748426		-7.795334		-4.451273		20.990950		-30.190928		4.129758		2.987060		2.361802		10.922927		0.376134		89.566250		-34.014466		37.907060		68.504931		105.022484		8.180403		1.198032		-26.142230		92.290293		-18.235858		30.752254		58.903001		113.249329		-8.906020		-5.383737		-17.373829		
0.399091		8.417480		-11.466211		91.982926		-0.032065		1.667041		1.297746		70.263479		-3.251513		-7.851533		-110.466538		-6.882082		-6.636592		21.572311		40.792440		-11.563584		7.834152		-123.943669		-11.078966		-5.312758		20.665450		-29.918325		4.264201		2.948941		1.876926		10.853051		0.316283		88.708303		-34.654261		37.738821		68.894305		105.503656		8.628331		1.488428		-25.979200		90.993647		-18.865094		30.529945		59.471833		113.282784		-8.327580		-4.821664		-17.458308		
0.403157		8.483711		-11.303752		92.004048		-0.031737		1.666136		1.289999		70.125464		-3.186897		-8.122432		-109.472254		-7.055466		-5.947490		21.657045		40.637208		-11.567468		8.082486		-123.112090		-14.413379		-5.527397		20.363597		-29.703269		4.384311		3.036339		1.519790		10.771152		0.238626		87.818681		-35.304811		37.580023		69.159680		105.731350		8.796302		1.699388		-25.854685		89.704598		-19.396644		30.338343		59.888261		113.220628		-7.996456		-4.345153		-17.478150		
0.407222		8.505099		-11.128720		92.058850		-0.031675		1.665080		1.282071		69.948777		-3.215092		-8.361007		-108.485421		-7.285186		-5.459096		21.739578		40.407252		-11.540273		8.216975		-122.236088		-16.532963		-5.496841		20.169997		-29.498173		4.510026		3.098486		1.064778		10.718046		0.153073		86.929060		-36.137374		37.561210		69.536332		105.852365		8.931121		1.743275		-25.744838		88.383734		-20.088070		30.358203		60.426986		113.195640		-7.744055		-4.111011		-17.449330		
0.411288		8.603057		-10.963439		92.106751		-0.031372		1.664101		1.274406		69.743501		-3.075802		-8.590301		-107.370308		-7.557548		-4.894661		21.906139		40.343824		-11.594154		8.425141		-121.308909		-18.464983		-5.282339		20.005908		-29.346687		4.666976		3.161836		0.736010		10.617178		0.054233		85.959908		-36.813567		37.293852		69.828082		106.009902		8.876399		1.814404		-25.667767		87.014731		-20.707886		30.108857		61.002722		113.110889		-7.491740		-3.609241		-17.371767		
0.415354		8.625356		-10.800132		92.130785		-0.031297		1.662883		1.266595		69.528573		-3.065988		-8.813271		-106.283014		-7.870967		-4.577499		22.052120		40.173913		-11.558260		8.455316		-120.370442		-18.794459		-4.795823		20.036556		-29.172482		4.772005		3.219891		0.354467		10.558065		-0.024523		84.973260		-37.584478		37.142905		70.100709		106.113238		8.798101		1.803648		-25.635396		85.622368		-21.461847		30.042200		61.650794		113.064715		-7.269196		-3.311476		-17.245750		
0.419419		8.723957		-10.717119		92.128160		-0.031115		1.661632		1.258897		69.355824		-2.908982		-9.015860		-105.072748		-8.320917		-4.278288		22.606849		40.086532		-11.628858		8.484761		-119.406487		-17.677576		-3.551310		20.454960		-28.964424		4.936480		3.218193		0.080497		10.411198		-0.051934		83.737723		-37.999394		36.535517		70.307805		106.484343		8.396697		1.911758		-25.570328		83.938876		-22.274875		29.411369		62.744560		112.997827		-6.815938		-2.300224		-16.954156		
0.423485		8.660343		-10.607978		92.077003		-0.031085		1.660291		1.251195		69.149526		-2.859135		-9.085708		-103.870161		-8.803557		-4.251951		23.028878		39.871246		-11.526107		8.266768		-118.382934		-15.588625		-2.348092		21.055734		-28.791173		4.945674		3.192435		-0.262451		10.315897		-0.078261		82.533036		-38.516715		36.060779		70.487756		106.637766		8.008627		1.990082		-25.594382		82.357202		-23.171400		29.090680		63.667271		112.871546		-6.623409		-1.836917		-16.768775		
0.427551		8.589648		-10.515639		92.063451		-0.031223		1.658864		1.243561		68.920019		-2.875719		-9.151678		-102.623146		-9.291448		-4.278832		23.438069		39.681461		-11.370212		7.977314		-117.316370		-13.140931		-1.409695		21.748231		-28.625339		4.976236		3.136073		-0.534077		10.210251		-0.112047		81.280448		-39.011763		35.494955		70.633479		106.770000		7.592330		2.078733		-25.622901		80.745161		-24.095030		28.753992		64.617928		112.678261		-6.547354		-1.449905		-16.625280		
0.431616		8.478740		-10.449994		91.976621		-0.031234		1.657317		1.235920		68.687843		-2.850699		-9.167726		-101.346675		-9.749636		-4.440992		23.828294		39.495749		-11.256521		7.572574		-116.178439		-10.656224		-0.214394		22.585201		-28.447116		4.941929		3.066535		-0.853643		10.067341		-0.068486		79.912593		-39.366001		34.753663		70.747173		107.035307		7.099405		2.208584		-25.600648		79.041204		-25.159666		28.391506		65.719657		112.355144		-6.512123		-0.996964		-16.453676		
0.435682		8.390393		-10.388312		91.886238		-0.031164		1.655673		1.228291		68.416172		-2.791173		-9.191887		-100.028738		-10.167155		-4.697955		24.092138		39.362569		-11.208242		7.146825		-114.987498		-8.674906		0.722389		23.415031		-28.279416		4.932879		2.972725		-1.191435		9.888900		0.025787		78.511429		-39.635361		33.947049		70.821306		107.516150		6.598629		2.219410		-25.469535		77.277100		-26.331579		27.996455		66.864917		111.991359		-6.543922		-0.624686		-16.261356		
0.439747		8.377888		-10.285820		91.876822		-0.031239		1.653990		1.220693		68.038838		-2.752435		-9.301433		-98.666453		-10.479572		-4.892651		24.130150		39.274155		-11.180598		6.762738		-113.759079		-7.388413		0.872651		23.868412		-28.184331		5.031889		2.933887		-1.417220		9.704903		-0.011447		77.101619		-40.053407		33.154128		70.930220		107.847396		6.061985		2.090944		-25.469495		75.489359		-27.387351		27.552768		67.877666		111.739285		-6.710804		-0.620709		-16.165956		
0.443813		8.384675		-10.201429		91.747095		-0.030960		1.652100		1.213059		67.661006		-2.608785		-9.473284		-97.291536		-10.855252		-5.425396		24.071984		39.273195		-11.366316		6.274007		-112.492920		-6.954141		0.999761		24.663961		-28.064958		5.103686		2.838548		-1.773901		9.418341		0.230133		75.763466		-40.165658		32.434328		70.820579		109.075403		5.529730		1.806952		-25.115152		73.527122		-28.737892		26.931583		69.175089		111.511379		-6.640512		-0.296719		-15.662443		
0.447879		8.420029		-10.066959		91.748949		-0.030871		1.650151		1.205537		67.185827		-2.523197		-9.647474		-95.875271		-11.092272		-5.687037		23.980905		39.320515		-11.462157		5.927699		-111.194745		-7.058577		0.761406		25.167703		-28.031859		5.241881		2.782642		-2.051088		9.211949		0.226517		74.476069		-40.607062		31.873221		70.839590		109.832407		5.071836		1.505977		-24.897921		71.704703		-29.908285		26.436669		70.209774		111.407163		-6.753976		-0.313440		-15.340214		
0.451944		8.495028		-9.898770		91.711140		-0.030586		1.648152		1.197969		66.635501		-2.345090		-9.852234		-94.412042		-11.320926		-5.986651		23.861336		39.369953		-11.672993		5.531496		-109.851669		-7.593374		0.279350		25.229019		-28.049090		5.368314		2.844992		-2.267406		9.049651		0.151880		73.088012		-41.159611		31.301043		70.951876		110.290206		4.543135		1.367371		-24.993754		69.935285		-30.982453		25.968096		71.116865		111.285700		-6.836439		-0.376509		-15.111858		
0.456010		8.533533		-9.735230		91.646542		-0.030356		1.645974		1.190521		66.094851		-2.192916		-10.053633		-92.940418		-11.733740		-6.530586		23.582273		39.462499		-11.893504		4.969512		-108.493311		-8.320798		-0.642076		25.342348		-28.084042		5.497454		2.754897		-2.583498		8.741433		0.325802		71.934405		-41.473743		30.893557		70.843780		111.789263		4.257456		1.041346		-24.747308		68.060538		-32.324522		25.352189		72.285375		111.256726		-6.810062		-0.003762		-14.318835		
0.460076		8.558759		-9.572465		91.703430		-0.030291		1.643602		1.183052		65.521761		-2.163965		-10.240950		-91.477767		-11.948716		-6.515072		23.518815		39.588811		-12.019725		4.539743		-107.134440		-8.773194		-0.800854		25.249957		-28.113233		5.620843		2.791198		-2.887230		8.592005		0.144454		70.586439		-42.258825		30.457517		71.003396		111.946917		3.975253		0.906079		-24.842028		66.473648		-33.412528		25.215110		73.043773		111.160137		-7.032247		-0.133806		-14.242998		
